{"title":"Hard Breakers (2010)(DivX)(Nl subs)(AC3) RETAIL TBS","uid":6098202,"size":1373257536,"categoryP":"video","categoryS":"movies","magnet":"?xt=urn:btih:b9ef5649ade113d6ec0447fbb8f57828b6ca127c&amp;dn=Hard+Breakers+%282010%29%28DivX%29%28Nl+subs%29%28AC3%29+RETAIL+TBS&amp;tr=udp%3A%2F%2Ftracker.openbittorrent.com%3A80&amp;tr=udp%3A%2F%2Fopen.demonii.com%3A1337&amp;tr=udp%3A%2F%2Ftracker.coppersurfer.tk%3A6969&amp;tr=udp%3A%2F%2Fexodus.desync.com%3A6969","seeders":0,"leechers":0,"uploader":"BlackSam.","files":-1,"time":1294859218,"description":"Hard Breakers (2010)(DivX)(Nl subs) RETAIL TBS       \n\n  \n\nVerenigde Staten\nKomedie\n98 minuten\n\ngeregisseerd door Leah Sturgis\nmet Tia Carrere, Cameron Richardson en Sophie Monk\n\nGedreven door een geschiedenis van mislukte dates en frustraties met mannen, besluiten Alexis (Richardson) en haar beste vriendin Lindsay (Monk) de rollen om \nte draaien. Ze bedenken een plan om nietsvermoedende mannen te verleiden om ze vervolgens mee te voeren naar huis en hun lusten te botvieren. Wanneer een \nverstrooide vader van een obsessief ex-vriendje Alexis confronteert met haar problemen met mannen, valt het plan in duigen en wordt Alexis verliefd op ÃƒÂ©ÃƒÂ©n \nvan haar mannelijke slachtoffers. Lindsay vervolgt hierna alleen haar mannenjacht.\n\nStoryline :\n\nDriven by a history of failed dates and frustration with men, Alexis decisions (Richardson) and her best friend Lindsay (Monk) to turn the tables. They \ndevise a plan to lure unsuspecting men to them to be carried home and to vent their lusts. When an absent father of an obsessive ex-boyfriend Alexis \nconfronts her problems with men, the plan falls apart and is in love with Alexis one of her male victims. Lindsay continues below her men hunt alone.\n \n\n\n\nSource.............: Hard.Breakers.2010.DVDRip.XVID.AC3.Hive-CM8 \nAudio..............: Engels\nSubtitles..........: Nederlands\nDviX...2 CDS.......: Zelda\nCategorie..........: Beeld \nFormaat............: DivX \nBron...............: Retail\nOndertitels........: Nederlands (ingebakken)\nThanks.............: ed1970  \n \n\nGeneral\nFormat                           : AVI\nFormat/Info                      : Audio Video Interleave\nFile size                        : 701 MiB\nDuration                         : 48mn 24s\nOverall bit rate                 : 2 024 Kbps\nWriting library                  : VirtualDub-MPEG2 build 18294/release\n\nVideo\nID                               : 0\nFormat                           : MPEG-4 Visual\nFormat profile                   : Advanced Simple@L5\nFormat settings, BVOP            : Yes\nFormat settings, QPel            : No\nFormat settings, GMC             : No warppoints\nFormat settings, Matrix          : Default (H.263)\nMuxing mode                      : Packed bitstream\nCodec ID                         : XVID\nCodec ID/Hint                    : XviD\nDuration                         : 48mn 24s\nBit rate                         : 1 758 Kbps\nWidth                            : 720 pixels\nHeight                           : 400 pixels\nDisplay aspect ratio             : 16:9\nFrame rate                       : 25.000 fps\nColor space                      : YUV\nChroma subsampling               : 4:2:0\nBit depth                        : 8 bits\nScan type                        : Progressive\nBits/(Pixel*Frame)               : 0.244\nStream size                      : 609 MiB (87%)\nWriting library                  : XviD 1.2.1 (UTC 2008-12-04)\n\nAudio\nID                               : 1\nFormat                           : AC-3\nFormat/Info                      : Audio Coding 3\nMode extension                   : CM (complete main)\nCodec ID                         : 2000\nDuration                         : 48mn 24s\nBit rate mode                    : Constant\nBit rate                         : 256 Kbps\nChannel(s)                       : 2 channels\nChannel positions                : Front: L R\nSampling rate                    : 48.0 KHz\nBit depth                        : 16 bits\nStream size                      : 88.6 MiB (13%)\nAlignment                        : Split accross interleaves\nInterleave, duration             : 40 ms (1.00 video frame)\nInterleave, preload duration     : 500 ms\n\n \n  &lt;a href=&quot;\nhttp://www.moviemeter.nl/film/66080&quot; rel=&quot;nofollow&quot; target=&quot;_NEW&quot;&gt;\nhttp://www.moviemeter.nl/film/66080&lt;/a&gt;   &lt;a href=&quot;\nhttp://www.imdb.com/title/tt1220627&quot; rel=&quot;nofollow&quot; target=&quot;_NEW&quot;&gt;\nhttp://www.imdb.com/title/tt1220627&lt;/a&gt; \n\n\nBlack-Sam","torrent":{"xt":"urn:btih:b9ef5649ade113d6ec0447fbb8f57828b6ca127c","amp;dn":"Hard+Breakers+%282010%29%28DivX%29%28Nl+subs%29%28AC3%29+RETAIL+TBS","amp;tr":["udp%3A%2F%2Ftracker.openbittorrent.com%3A80","udp%3A%2F%2Fopen.demonii.com%3A1337","udp%3A%2F%2Ftracker.coppersurfer.tk%3A6969","udp%3A%2F%2Fexodus.desync.com%3A6969"],"infoHash":"b9ef5649ade113d6ec0447fbb8f57828b6ca127c","infoHashBuffer":{"type":"Buffer","data":[185,239,86,73,173,225,19,214,236,4,71,251,184,245,120,40,182,202,18,124]},"announce":[],"urlList":[]}}